<?xml version="1.0" encoding="utf-8"?>
<!-- Generator: Adobe Illustrator 22.1.0, SVG Export Plug-In . SVG Version: 6.00 Build 0)  -->
<svg version="1.1" id="Capa_1" xmlns="http://www.w3.org/2000/svg" xmlns:xlink="http://www.w3.org/1999/xlink" x="0px" y="0px"
	 viewBox="0 0 472 472" style="enable-background:new 0 0 472 472;" xml:space="preserve">
<style type="text/css">
	.st0{fill:#FFFFFF;}
</style>
<path class="st0" d="M440,208c4.4,0,8-3.6,8-8V8c0-4.4-3.6-8-8-8c-34.6,0-88,27.5-88,64v8H184c-22.1,0-40,17.9-40,40v38.1
	c-8,7.1-13.4,16.6-15.3,27.1c-48.4,7.3-85.2,47.3-88.3,96.1c-11.1,3.7-17.9,15-16,26.6S36.3,320,48.1,320h240
	c11.7,0,21.8-8.5,23.7-20.1c1.9-11.6-4.9-22.8-16-26.6c-3.2-48.8-39.9-88.8-88.3-96.1c-1.9-10.5-7.3-20-15.3-27.1V120h160v24
	C352,180.5,405.4,208,440,208z M368,64c0-23.2,36.9-43.8,64-47.4v174.8c-27.1-3.6-64-24.2-64-47.4V64z M190.6,176h-45.1
	c2.7-8.1,8.8-16,14.6-16h16C181.8,160,187.9,167.8,190.6,176z M288,303.9H48c-4.4,0-8-3.6-8-8s3.6-8,8-8h240c4.4,0,8,3.6,8,8
	S292.4,303.9,288,303.9z M279.7,271.9H56.4c4.2-45.3,42.2-79.9,87.6-80h48C237.5,192,275.5,226.7,279.7,271.9z M184.1,104
	c-4.4,0-8,3.6-8,8v32h-16v-32c0-13.3,10.7-24,24-24h168v16H184.1z"/>
<path class="st0" d="M64.1,343.9c0-4.4-3.6-8-8-8s-8,3.6-8,8v8c0,4.4,3.6,8,8,8s8-3.6,8-8V343.9z"/>
<path class="st0" d="M96.1,343.9c0-4.4-3.6-8-8-8s-8,3.6-8,8v48c0,4.4,3.6,8,8,8s8-3.6,8-8V343.9z"/>
<path class="st0" d="M128.1,343.9c0-4.4-3.6-8-8-8s-8,3.6-8,8v8c0,4.4,3.6,8,8,8s8-3.6,8-8V343.9z"/>
<path class="st0" d="M160.1,343.9c0-4.4-3.6-8-8-8s-8,3.6-8,8v48c0,4.4,3.6,8,8,8s8-3.6,8-8V343.9z"/>
<path class="st0" d="M192.1,343.9c0-4.4-3.6-8-8-8s-8,3.6-8,8v8c0,4.4,3.6,8,8,8s8-3.6,8-8V343.9z"/>
<path class="st0" d="M224,343.9c0-4.4-3.6-8-8-8s-8,3.6-8,8v48c0,4.4,3.6,8,8,8s8-3.6,8-8V343.9z"/>
<path class="st0" d="M256,343.9c0-4.4-3.6-8-8-8s-8,3.6-8,8v8c0,4.4,3.6,8,8,8s8-3.6,8-8V343.9z"/>
<path class="st0" d="M88.1,415.9c-4.4,0-8,3.6-8,8v24c0,4.4,3.6,8,8,8s8-3.6,8-8v-24C96.1,419.5,92.5,415.9,88.1,415.9z"/>
<path class="st0" d="M152.1,415.9c-4.4,0-8,3.6-8,8v24c0,4.4,3.6,8,8,8s8-3.6,8-8v-24C160.1,419.5,156.5,415.9,152.1,415.9z"/>
<path class="st0" d="M216,415.9c-4.4,0-8,3.6-8,8v24c0,4.4,3.6,8,8,8s8-3.6,8-8v-24C224,419.5,220.5,415.9,216,415.9z"/>
<path class="st0" d="M280,415.9c-4.4,0-8,3.6-8,8v24c0,4.4,3.6,8,8,8s8-3.6,8-8v-24C288,419.5,284.5,415.9,280,415.9z"/>
<path class="st0" d="M288,343.9c0-4.4-3.6-8-8-8s-8,3.6-8,8v48c0,4.4,3.6,8,8,8s8-3.6,8-8V343.9z"/>
<path class="st0" d="M64.1,383.9c0-4.4-3.6-8-8-8s-8,3.6-8,8v48c0,4.4,3.6,8,8,8s8-3.6,8-8V383.9z"/>
<path class="st0" d="M128.1,383.9c0-4.4-3.6-8-8-8s-8,3.6-8,8v48c0,4.4,3.6,8,8,8s8-3.6,8-8V383.9z"/>
<path class="st0" d="M192.1,383.9c0-4.4-3.6-8-8-8s-8,3.6-8,8v48c0,4.4,3.6,8,8,8s8-3.6,8-8V383.9z"/>
<path class="st0" d="M256,383.9c0-4.4-3.6-8-8-8s-8,3.6-8,8v48c0,4.4,3.6,8,8,8s8-3.6,8-8V383.9z"/>
<path class="st0" d="M59.1,456.5c-1.5-0.6-3.1-0.7-4.6-0.4c-0.5,0.1-1,0.2-1.4,0.4c-0.5,0.2-1,0.5-1.4,0.8s-0.8,0.6-1.2,1
	c-0.7,0.8-1.3,1.7-1.7,2.6s-0.7,2-0.6,3c0,3.3,1.9,6.2,4.9,7.5s6.5,0.6,8.8-1.7s3-5.8,1.7-8.8c-0.4-1-1-1.9-1.7-2.6
	C61,457.5,60.1,456.9,59.1,456.5z"/>
<path class="st0" d="M114.4,458.2c-0.7,0.8-1.3,1.7-1.7,2.6c-1.3,3-0.6,6.4,1.7,8.7c0.8,0.7,1.7,1.3,2.6,1.7c3,1.3,6.4,0.6,8.7-1.7
	c2.3-2.3,3-5.7,1.7-8.7c-0.4-1-1-1.9-1.7-2.6C122.5,455.3,117.6,455.3,114.4,458.2z"/>
<path class="st0" d="M188.5,457.3c-0.4-0.3-0.9-0.6-1.4-0.8c-0.5-0.2-1-0.3-1.5-0.4c-1.5-0.3-3.1-0.2-4.5,0.4
	c-1,0.5-1.8,1.1-2.6,1.8c-0.7,0.8-1.3,1.7-1.7,2.6c-1.3,3-0.6,6.4,1.7,8.7c0.8,0.7,1.7,1.3,2.6,1.7c3,1.3,6.4,0.6,8.7-1.7
	c2.3-2.3,3-5.7,1.7-8.7c-0.4-1-1-1.9-1.7-2.6C189.3,457.9,188.9,457.5,188.5,457.3z"/>
<path class="st0" d="M242.4,458.2c-0.7,0.8-1.3,1.7-1.7,2.6s-0.7,2-0.6,3c0,2.1,0.8,4.2,2.3,5.7c0.8,0.7,1.7,1.3,2.6,1.7
	c2.5,1.1,5.3,0.8,7.5-0.7s3.6-4,3.5-6.7c0-1.1-0.2-2.1-0.6-3c-0.4-1-1-1.9-1.7-2.6C250.5,455.3,245.6,455.3,242.4,458.2z"/>
</svg>
