<?xml version="1.0" encoding="utf-8"?>
<!-- Generator: Adobe Illustrator 22.1.0, SVG Export Plug-In . SVG Version: 6.00 Build 0)  -->
<svg version="1.1" id="Capa_1" xmlns="http://www.w3.org/2000/svg" xmlns:xlink="http://www.w3.org/1999/xlink" x="0px" y="0px"
	 viewBox="0 0 480 480" style="enable-background:new 0 0 480 480;" xml:space="preserve">
<style type="text/css">
	.st0{fill:#FFFFFF;}
</style>
<path class="st0" d="M472,260h-8v-64c0-4.4-3.6-8-8-8H272v-16c0-4.4-3.6-8-8-8h-72c-4.4,0-8,3.6-8,8v16h-19.6
	c2.4-4.3,3.6-9.1,3.6-14v-4c0-16.6-13.4-30-30-30H86c-16.6,0-30,13.4-30,30v4c0,4.9,1.3,9.7,3.6,14H48V60c0-4.4-3.6-8-8-8H8
	c-4.4,0-8,3.6-8,8v360c0,4.4,3.6,8,8,8h32c4.4,0,8-3.6,8-8v-88h384v88c0,4.4,3.6,8,8,8h32c4.4,0,8-3.6,8-8V268
	C480,263.6,476.4,260,472,260z M448,204v56H272v-56H448z M200,180h56v80h-56V180z M72,174v-4c0-7.7,6.3-14,14-14h52
	c7.7,0,14,6.3,14,14v4c0,7.7-6.3,14-14,14H86C78.3,188,72,181.7,72,174z M86,204h98v56H48v-56H86z M32,412H16V68h16V412z M48,276
	h416v40H48V276z M464,412h-16v-80h16V412z"/>
</svg>
