<?xml version="1.0" encoding="utf-8"?>
<!-- Generator: Adobe Illustrator 22.1.0, SVG Export Plug-In . SVG Version: 6.00 Build 0)  -->
<svg version="1.1" id="Capa_1" xmlns="http://www.w3.org/2000/svg" xmlns:xlink="http://www.w3.org/1999/xlink" x="0px" y="0px"
	 viewBox="0 0 512 512" style="enable-background:new 0 0 512 512;" xml:space="preserve">
<style type="text/css">
	.st0{fill:#FFFFFF;}
</style>
<path class="st0" d="M376,0H136c-22.1,0-40,17.9-40,40v392c0,22.1,17.9,40,40,40h10v10c0,16.5,13.5,30,30,30h10c11,0,20-9,20-20v-20
	h100v20c0,11,9,20,20,20h10c16.5,0,30-13.5,30-30v-10h10c22.1,0,40-17.9,40-40V40C416,17.9,398.1,0,376,0z M186,492h-10
	c-5.5,0-10-4.5-10-10v-10h20V492L186,492z M346,482c0,5.5-4.5,10-10,10h-10v-20h20V482z M396,432c0,11-9,20-20,20H136
	c-11,0-20-9-20-20V192h280V432z M396,172H116V40c0-11,9-20,20-20h240c11,0,20,9,20,20V172z"/>
<path class="st0" d="M226.2,152h-70c-11,0-20-9-20-20v-10c0-16.5,13.5-30,30-30h50c16.5,0,30,13.5,30,30v10
	C246.2,143,237.2,152,226.2,152z M166.2,112c-5.5,0-10,4.5-10,10v10h70v-10c0-5.5-4.5-10-10-10H166.2z"/>
<path class="st0" d="M216.2,272h-50c-16.5,0-30-13.5-30-30v-10c0-11,9-20,20-20h70c11,0,20,9,20,20v10
	C246.2,258.5,232.7,272,216.2,272z M156.2,232v10c0,5.5,4.5,10,10,10h50c5.5,0,10-4.5,10-10v-10H156.2z"/>
<path class="st0" d="M366,432c-5.5,0-10-4.5-10-10v-80c0-5.5,4.5-10,10-10s10,4.5,10,10v80C376,427.5,371.5,432,366,432z"/>
<path class="st0" d="M366,312c-5.5,0-10-4.5-10-10s4.5-10,10-10l0,0c5.5,0,10,4.5,10,10S371.5,312,366,312z"/>
</svg>
