<?xml version="1.0" encoding="utf-8"?>
<!-- Generator: Adobe Illustrator 22.1.0, SVG Export Plug-In . SVG Version: 6.00 Build 0)  -->
<svg version="1.1" id="Capa_1" xmlns="http://www.w3.org/2000/svg" xmlns:xlink="http://www.w3.org/1999/xlink" x="0px" y="0px"
	 viewBox="0 0 512 512" style="enable-background:new 0 0 512 512;" xml:space="preserve">
<style type="text/css">
	.st0{fill:#FFFFFF;}
</style>
<g>
	<path class="st0" d="M507,205.3c0-29-23.5-52.5-52.5-52.5c-8.8,0-17.2,2.2-24.5,6.1v-54.2c0-19.1-15.5-34.5-34.5-34.5H116.5
		c-19.1,0-34.5,15.5-34.5,34.5v54.2c-7.4-3.9-15.8-6.1-24.5-6.1c-29,0-52.5,23.5-52.5,52.5c0,20.9,12.7,39.7,31.3,47.9v175.9
		c0,7,5.7,12.7,12.7,12.7h66.1c7,0,12.7-5.7,12.7-12.7v-32.8h122.6c7,0,12.7-5.7,12.7-12.7c0-7-5.7-12.7-12.7-12.7H61.6V330h388.7
		v40.8h-77.8c-7,0-12.7,5.7-12.7,12.7c0,7,5.7,12.7,12.7,12.7h11.7v32.8c0,7,5.7,12.7,12.7,12.7H463c7,0,12.7-5.7,12.7-12.7V253.2
		C494.3,244.9,507,226.1,507,205.3z M107.4,104.6c0-5,4.1-9,9-9h278.9c5,0,9,4.1,9,9v142.1c-8.4-5.3-18.3-8.4-29-8.4h-239
		c-10.7,0-20.6,3.1-29,8.4V104.6z M102.3,396.3v20.1H61.6v-20.1H102.3z M51.5,231.7C39.2,229,30.3,218,30.3,205.3
		c0-14.9,12.1-27.1,27.1-27.1c10.7,0,20.2,6.1,24.5,15.8v110.7H61.6V244C61.6,238.1,57.4,233,51.5,231.7z M107.4,292.8
		c0-16,13-29,29-29h239.1c16,0,29,13,29,29v11.8H107.4V292.8z M450.3,416.4h-40.7v-20.1h40.7V416.4z M460.3,231.7
		c-5.9,1.3-10,6.5-10,12.5v60.5h-20.3V194.1c4.5-9.7,13.9-15.8,24.5-15.8c14.9,0,27.1,12.1,27.1,27.1
		C481.6,217.8,472.5,229,460.3,231.7z"/>
	<rect x="200.7" y="370.3" class="st0" width="208.8" height="25.9"/>
</g>
</svg>
