<?xml version="1.0" encoding="utf-8"?>
<!-- Generator: Adobe Illustrator 22.1.0, SVG Export Plug-In . SVG Version: 6.00 Build 0)  -->
<svg version="1.1" id="logo4" xmlns="http://www.w3.org/2000/svg" xmlns:xlink="http://www.w3.org/1999/xlink" x="0px" y="0px"
	 viewBox="0 0 550.6 531.6" style="enable-background:new 0 0 550.6 531.6;" xml:space="preserve">
<style type="text/css">
	.st0{fill:#FF8533;}
	.st1{fill:#403B39;}
</style>
<g>
	<g>
		<g>
			<polygon class="st0" points="212,225.9 212,290.5 161.8,290.5 161.8,176.8 161.9,176.8 161.8,176.8 261.9,120.2 261.9,68.7 
				192.6,107.8 110.9,154 110.9,338.5 261.9,338.5 261.9,191.5 			"/>
			<path class="st0" d="M261.9,342.2h-151c-2,0-3.7-1.6-3.7-3.7V154c0-1.3,0.7-2.5,1.9-3.2l151-85.3c1.1-0.6,2.5-0.6,3.7,0
				c1.1,0.7,1.8,1.9,1.8,3.2v51.5c0,1.3-0.7,2.5-1.9,3.2l-98.3,55.6v108h42.9v-61c0-1.2,0.6-2.3,1.6-3l49.9-34.4
				c1.1-0.8,2.6-0.9,3.8-0.2c1.2,0.6,2,1.9,2,3.2v147C265.6,340.6,264,342.2,261.9,342.2z M114.6,334.9h143.7V198.5l-42.6,29.3v62.7
				c0,2-1.6,3.7-3.7,3.7h-50.2c-2,0-3.7-1.6-3.7-3.7V176.8c0-0.9,0.3-1.7,0.9-2.4c0.3-0.4,0.6-0.6,1-0.9l98.3-55.6V75l-143.7,81.2
				V334.9z"/>
		</g>
		<g>
			<polygon class="st0" points="356,107.8 286.7,68.7 286.7,120.5 386.4,176.8 386.3,176.8 386.4,176.8 386.4,290.5 336.2,290.5 
				336.2,225.9 286.7,190 286.7,338.5 437.7,338.5 437.7,154 			"/>
			<path class="st0" d="M437.7,342.2h-151c-2,0-3.7-1.6-3.7-3.7V190c0-1.4,0.8-2.6,2-3.3c1.2-0.6,2.7-0.5,3.8,0.3l49.4,35.9
				c1,0.7,1.5,1.8,1.5,3v61h42.9v-108l-97.8-55.2c-1.2-0.7-1.9-1.9-1.9-3.2V68.7c0-1.3,0.7-2.5,1.8-3.2c1.1-0.7,2.5-0.7,3.7,0
				l151,85.3c1.2,0.7,1.9,1.9,1.9,3.2v184.6C441.3,340.6,439.7,342.2,437.7,342.2z M290.4,334.9H434V156.1L354.2,111l0,0l-63.8-36
				v43.4l97.8,55.2c0.8,0.4,1.4,1.2,1.7,2c0.1,0.4,0.2,0.8,0.2,1.2v113.7c0,2-1.6,3.7-3.7,3.7h-50.2c-2,0-3.7-1.6-3.7-3.7v-62.8
				l-42.1-30.6V334.9z"/>
		</g>
	</g>
	<g>
		<g>
			<path class="st1" d="M120,425h-9.6l-3.3,14.7c-0.4,1.4-1.9,2.6-3.3,2.6h-2.7c-2.3,0-3.8-1.9-3.3-4.1l4.5-20l8.6-36.9
				c0.4-1.4,1.9-2.6,3.3-2.6h2.1c1.4,0,3,1.2,3.3,2.6l13,56.8c0.5,2.2-1,4.1-3.3,4.1h-2.7c-1.4,0-2.9-1.2-3.3-2.6L120,425z
				 M112.6,415.6h5.3c-1-4.5-0.8-7.1-2.6-15.1L112.6,415.6z"/>
			<path class="st1" d="M143.2,442.3c-1.9,0-3.4-1.5-3.4-3.4v-56.8c0-1.9,1.5-3.4,3.4-3.4h9.3c11,0,15.9,6,15.9,18.2
				c0,8.8-4.1,13.6-4.1,13.6c2.5,3,4.1,7.8,4.1,13.6c0,12.2-4.9,18.2-15.9,18.2H143.2z M149.3,388.1v17.7h3.3c4.6,0,6.5-2.5,6.5-8.9
				c0-6.3-1.9-8.9-6.5-8.9H149.3z M149.3,415.2V433h3.3c4.6,0,6.5-2.5,6.5-8.9c0-6.4-1.9-9-6.5-9H149.3z"/>
			<path class="st1" d="M175.7,397.2c0-11.9,5.2-18.4,15.5-18.4c10.4,0,15.5,6.4,15.5,18.4v26.7c0,7.5-2,11.8-4.9,14.7
				c-3.1,3-7.1,3.8-10.6,3.8c-3.4,0-7.4-0.8-10.5-3.8c-2.9-2.9-5-7.3-5-14.7V397.2z M185.1,423.8c0,6.2,2,9.1,6,9.1c4,0,6-2.7,6-9.1
				v-26.7c0-6.3-2-9.1-6-9.1c-4.1,0-6,2.9-6,9.1V423.8z"/>
			<path class="st1" d="M217.6,442.3c-1.9,0-3.4-1.5-3.4-3.4v-56.8c0-1.9,1.5-3.4,3.4-3.4h9.6c11.3,0,16.6,6.4,16.6,18.7v26.2
				c0,12.3-5.3,18.7-16.6,18.7H217.6z M223.5,388.1V433h3.7c5,0,7.1-3,7.1-9.3v-26.2c0-6.3-2.1-9.3-7.1-9.3H223.5z"/>
			<path class="st1" d="M275.2,378.8c1.9,0,3.4,1.5,3.4,3.4v2.5c0,1.9-1.5,3.4-3.4,3.4h-14.4v17.7h11.9c1.9,0,3.4,1.5,3.4,3.4v2.5
				c0,1.9-1.5,3.4-3.4,3.4h-11.9V433h14.4c1.9,0,3.4,1.5,3.4,3.4v2.5c0,1.9-1.5,3.4-3.4,3.4h-20.4c-1.9,0-3.4-1.5-3.4-3.4v-56.8
				c0-1.9,1.5-3.4,3.4-3.4H275.2z"/>
			<path class="st1" d="M304.2,382.1c0-1.9,1.5-3.4,3.4-3.4h24.7c1.9,0,3.4,1.5,3.4,3.4v2.6c0,1.9-1.5,3.4-3.4,3.4h-7.7v50.7
				c0,1.9-1.5,3.4-3.4,3.4h-2.5c-1.9,0-3.4-1.5-3.4-3.4v-50.7h-7.6c-1.9,0-3.4-1.5-3.4-3.4V382.1z"/>
			<path class="st1" d="M366.1,378.8c1.9,0,3.4,1.5,3.4,3.4v2.5c0,1.9-1.5,3.4-3.4,3.4h-14.4v17.7h11.9c1.9,0,3.4,1.5,3.4,3.4v2.5
				c0,1.9-1.5,3.4-3.4,3.4h-11.9V433h14.4c1.9,0,3.4,1.5,3.4,3.4v2.5c0,1.9-1.5,3.4-3.4,3.4h-20.4c-1.9,0-3.4-1.5-3.4-3.4v-56.8
				c0-1.9,1.5-3.4,3.4-3.4H366.1z"/>
			<path class="st1" d="M375.5,397.2c0-7.2,2.1-11.9,5.1-14.7c3.1-2.8,6.9-3.7,10.5-3.7c3.5,0,7.3,0.8,10.4,3.7c3,2.8,5,7.5,5,14.7
				v1.3c0,1.9-1.5,3.4-3.3,3.4h-2.7c-1.9,0-3.4-1.5-3.4-3.4v-1.3c0-6.3-2.1-9.1-5.9-9.1c-4,0-6,2.7-6,9.1v26.7c0,6.3,2,9.1,6,9.1
				c1.8,0,3.5-0.8,4.3-1.7c1.1-1.5,1.6-4.1,1.6-7.5v-1.3c0-1.9,1.5-3.4,3.4-3.4h2.7c1.8,0,3.3,1.5,3.3,3.4v1.3
				c0,7.5-2,11.8-4.9,14.7c-3.1,3-7.1,3.8-10.5,3.8c-3.6,0-7.5-0.8-10.6-3.8c-2.9-2.9-5-7.3-5-14.7V397.2z"/>
			<path class="st1" d="M432.8,405.9v-23.8c0-1.9,1.5-3.4,3.4-3.4h2.6c1.9,0,3.4,1.5,3.4,3.4v56.8c0,1.9-1.5,3.4-3.4,3.4h-2.6
				c-1.9,0-3.4-1.5-3.4-3.4v-23.7h-10.5v23.7c0,1.9-1.5,3.4-3.4,3.4h-2.6c-1.9,0-3.4-1.5-3.4-3.4v-56.8c0-1.9,1.5-3.4,3.4-3.4h2.6
				c1.9,0,3.4,1.5,3.4,3.4v23.8H432.8z"/>
		</g>
	</g>
</g>
</svg>
