<?xml version="1.0" encoding="utf-8"?>
<!-- Generator: Adobe Illustrator 22.1.0, SVG Export Plug-In . SVG Version: 6.00 Build 0)  -->
<svg version="1.1" id="Layer_1" xmlns="http://www.w3.org/2000/svg" xmlns:xlink="http://www.w3.org/1999/xlink" x="0px" y="0px"
	 viewBox="0 0 512 512" style="enable-background:new 0 0 512 512;" xml:space="preserve">
<style type="text/css">
	.st0{fill:#FFFFFF;}
</style>
<g>
	<g>
		<path class="st0" d="M511.2,345c0.8-2.1,1.1-4.4,0.3-6.8l-42.2-137.1V74.7c0-29.4-23.9-53.3-53.3-53.3H96
			c-29.4,0-53.3,23.9-53.3,53.3v126.5l-42.2,137c-0.7,2.3-0.4,4.7,0.3,6.8c-0.5,2.3-0.8,4.6-0.8,7v85.3V480
			c0,5.9,4.8,10.7,10.7,10.7h42.7c5.9,0,10.7-4.8,10.7-10.7v-32h384v32c0,5.9,4.8,10.7,10.7,10.7h42.7c5.9,0,10.7-4.8,10.7-10.7
			v-42.7V352C512,349.6,511.7,347.2,511.2,345z M64,74.7c0-17.6,14.4-32,32-32h320c17.6,0,32,14.4,32,32V192h-29l-9.9-39.8
			C405.5,138,392.7,128,378,128h-68.7c-17.6,0-32,14.4-32,32v32h-42.7v-32c0-17.6-14.4-32-32-32H134c-14.7,0-27.5,10-31.1,24.2
			L93,192H64V74.7z M397.1,209.2c-2,2.6-5.1,4.1-8.4,4.1h-79.3c-5.9,0-10.7-4.8-10.7-10.7V160c0-5.9,4.8-10.7,10.7-10.7H378
			c4.9,0,9.2,3.3,10.3,8.1l10.7,42.7C399.9,203.3,399.1,206.6,397.1,209.2z M213.4,160v42.6v0.1l0,0c0,5.9-4.8,10.6-10.6,10.6h-79.3
			c-3.3,0-6.4-1.5-8.4-4.1s-2.8-6-1.9-9.2l10.7-42.7c1.2-4.7,5.4-8.1,10.4-8.1H203C208.6,149.3,213.4,154.1,213.4,160z M61.2,213.3
			h32.1c1.1,3.2,2.6,6.3,4.8,9c6.1,7.8,15.3,12.3,25.3,12.3h79.3c13.9,0,25.6-9,30-21.3h46.6c4.4,12.4,16.1,21.3,30,21.3h79.3
			c9.9,0,19.1-4.5,25.2-12.3c2.2-2.8,3.6-5.8,4.8-9h32.1l32.9,107.1c-1.2-0.1-2.5-0.4-3.7-0.4H32c-1.3,0-2.5,0.2-3.7,0.4L61.2,213.3
			z M42.7,469.3H21.3V448h21.3L42.7,469.3L42.7,469.3z M490.7,469.3h-21.3V448h21.3V469.3z M490.7,426.7H21.3V352
			c0-5.9,4.8-10.7,10.7-10.7h448c5.9,0,10.7,4.8,10.7,10.7V426.7z"/>
	</g>
</g>
</svg>
