<?xml version="1.0" encoding="utf-8"?>
<!-- Generator: Adobe Illustrator 22.1.0, SVG Export Plug-In . SVG Version: 6.00 Build 0)  -->
<svg version="1.1" id="Capa_1" xmlns="http://www.w3.org/2000/svg" xmlns:xlink="http://www.w3.org/1999/xlink" x="0px" y="0px"
	 viewBox="0 0 93.5 93.5" style="enable-background:new 0 0 93.5 93.5;" xml:space="preserve">
<style type="text/css">
	.st0{fill:#4D4644;}
</style>
<g>
	<path class="st0" d="M28.9,19.2c12,0,23.6,0,35.7,0c0.3,5.3-2,9.3-6.2,12c-6.8,4.4-14.2,4.1-21.3,1C31.8,30,29.2,25.4,28.9,19.2z"
		/>
	<path class="st0" d="M42.8,84.1c-9.9-0.1-22-4.8-32.1-14.3c-1-1,2.3-4.7,3.4-3.7c20.2,17.2,44.9,17.2,65.4,0
		c1.1-0.9,4.3,2.7,3.3,3.8C74,78.8,60.3,84,42.8,84.1z"/>
	<path class="st0" d="M46.5,69.4c-10.1-0.3-19.1-3.5-26.6-10.3c-1.3-1.1-2.6-4.1-2-5c1.8-2.7,3.5-0.3,5.1,1c14,12,33.6,12.1,47.6,0
		c0.3-0.3,0.6-0.8,0.9-0.8c1.4-0.2,4.2,2.9,3.3,3.9C68.4,65,56.7,69.5,46.5,69.4z"/>
	<path class="st0" d="M47.2,9.6c5.2,0,10.4,0,15.6,0c2.5,0,4.7,0.7,4.7,3.6c0,2.9-2.3,3.6-4.7,3.6c-10.6,0-21.1,0-31.7,0
		c-2.4,0-4.8-0.6-4.9-3.5c-0.1-3.1,2.3-3.8,5-3.8C36.5,9.6,41.8,9.6,47.2,9.6z"/>
	<path class="st0" d="M46.4,53.8c-7.2-0.1-13.5-2.4-18.8-7.3c-1-1,2-4.7,3.1-3.8c11,8.1,21.3,8.1,32.1,0c1.1-0.8,4.2,2.9,3.2,3.9
		C60.5,51.6,53.9,53.9,46.4,53.8z"/>
</g>
</svg>
