<?xml version="1.0" encoding="utf-8"?>
<!-- Generator: Adobe Illustrator 22.1.0, SVG Export Plug-In . SVG Version: 6.00 Build 0)  -->
<svg version="1.1" id="Capa_1" xmlns="http://www.w3.org/2000/svg" xmlns:xlink="http://www.w3.org/1999/xlink" x="0px" y="0px"
	 viewBox="0 0 450 546" style="enable-background:new 0 0 450 546;" xml:space="preserve">
<style type="text/css">
	.st0{fill:#4D4644;}
	.st1{fill:#EADD81;}
</style>
<g>
	<path class="st0" d="M218.2,478.6c-10.7,0-21.4,0-32.1,0c-8.5,0-14.4-5.2-14.5-12.7c-0.1-7.3,5.8-12.9,14.2-12.9
		c21.7-0.1,43.5-0.1,65.2,0c8.2,0,14,5.4,14.1,12.7c0.1,7.4-5.9,12.9-14.3,12.9C239.9,478.6,229.1,478.6,218.2,478.6z"/>
	<path class="st0" d="M218.2,446.2c-10.9,0-21.8,0-32.6,0c-8.4,0-14.1-5.2-14-12.5c0.1-7.3,5.9-12.7,13.9-12.7c21.9,0,43.8,0,65.8,0
		c7.9,0,13.8,5.6,13.8,12.9c-0.1,7.1-5.7,12.3-13.7,12.3C240.3,446.3,229.3,446.2,218.2,446.2z"/>
	<path class="st0" d="M52.9,217.7c8.8,0,15.9,0.1,22.9,0c2.3,0,3.7,0.4,3.2,3.2c-1.3,6.6-0.9,13.4-0.8,20.1c0,2.7-0.8,3.6-3.5,3.6
		c-14.4-0.1-28.8,0-43.2-0.1c-6.9-0.1-12.2-5.2-12.8-11.9c-0.6-7,3.6-13,10.7-14.2C37.7,216.8,46.2,218.2,52.9,217.7z"/>
	<path class="st0" d="M383.8,244.5c-6.9,0-13.8-0.2-20.6,0.1c-3.4,0.1-4.8-0.6-4.6-4.4c0.3-6.4,0.4-12.8-0.8-19.1
		c-0.5-2.6,0.5-3.3,3.1-3.3c14.5,0.1,29.1-0.1,43.6,0.1c8.2,0.1,13.8,6.1,13.6,13.6c-0.1,7.7-5.8,12.9-14.2,13
		C397.2,244.5,390.5,244.5,383.8,244.5z"/>
	<path class="st0" d="M86.4,86c3.8,0.2,7,1.5,9.6,4.1c10.3,10.3,20.5,20.6,30.9,30.8c2,1.9,1.4,2.9-0.3,4.4
		c-5,4.5-9.7,9.3-13.9,14.6c-1.7,2.1-2.7,1.9-4.5,0.1c-10.4-10.6-21-21-31.4-31.6c-4-4-4.8-9.9-2.5-14.6C76.8,88.7,81,86.2,86.4,86z
		"/>
	<path class="st0" d="M363.4,100.8c0.1,2.1-1.1,5.1-3.6,7.6c-10.5,10.5-21,21-31.5,31.6c-1.8,1.8-2.8,1.8-4.5-0.2
		c-4-5.2-8.7-9.8-13.6-14.2c-2.1-1.8-2.6-2.9-0.3-5.1c10.3-10,20.4-20.3,30.6-30.4c4.3-4.2,10-5.3,15-2.9
		C360.7,89.6,363.4,93.6,363.4,100.8z"/>
	<path class="st0" d="M231.7,65.4c0,6.9-0.1,13.8,0.1,20.6c0.1,2.9-0.6,4.2-3.7,3.7c-6.5-1-13.1-1-19.6,0c-2.8,0.4-3.6-0.6-3.6-3.3
		c0.1-13.8-0.1-27.5,0.1-41.3c0.1-7.8,5.9-13.6,13.2-13.7c7.4-0.1,13.4,5.9,13.5,13.9C231.8,51.9,231.7,58.6,231.7,65.4z"/>
	<path class="st0" d="M103.6,327.4c4.8,6.3,9.4,12.7,14.7,18.4c1.6,1.7,1.3,2.9-0.3,4.4c-7.6,7.5-15,15.2-22.7,22.6
		c-4.9,4.7-12.9,4.6-17.8,0.1c-5.2-4.7-6.2-13-1.4-18.1C85,345.4,94.4,336.6,103.6,327.4z"/>
	<path class="st0" d="M332.9,327.4c9.3,9.2,18.7,18,27.6,27.4c4.8,5.1,3.8,13.4-1.4,18.1c-4.9,4.5-12.9,4.6-17.8-0.1
		c-7.7-7.4-15.1-15.1-22.7-22.6c-1.6-1.5-1.8-2.7-0.2-4.4C323.6,340.1,328.3,333.8,332.9,327.4z"/>
	<path class="st0" d="M218.2,499.7c-6.7-0.2-13.4-0.1-19.8-2.8c-3.6-1.6-6.8-3.7-8.5-7.3c-1.1-2.4-1-4.2,2.6-4.2
		c17.1,0.1,34.1,0,51.2,0.1c3.8,0,4.6,1.7,2.3,5.1c-3.6,5.3-9,7.5-15,8.3C226.9,499.4,222.5,499.4,218.2,499.7z"/>
	<path class="st0" d="M338.8,219.5c-7.9-51.1-38.1-84.9-87.4-100.2c-26.5-8.2-53.4-6.8-79.1,4.5c-44,19.4-69.7,52.9-75,100.9
		c-3.6,31.9,3.3,61.6,22.6,87.9c7.8,10.6,17.4,19.6,26,29.5c4,4.6,6.5,9.7,7.2,15.8c1,8.3,1.3,16.6,1.6,24.9
		c0.6,17.7,12.5,29.7,30.1,29.8c11.2,0.1,22.4,0,33.6,0c0,0,0,0,0,0c11.7,0,23.4,0.2,35,0c16-0.3,28-12.5,28.6-28.3
		c0.2-6.1,0.6-12.1,0.8-18.2c0.3-11.2,3.7-20.9,12.2-28.6c3.2-2.9,6-6.2,9-9.3C333.5,297.7,345.2,260.9,338.8,219.5z M292.5,309.9
		c-5.8,6.4-11.7,12.7-17.6,19.1c-8.1,8.7-11.5,19.3-12.4,31c-0.5,7.3-1.2,14.7-1.1,22c0.1,6.9-3.4,10.2-10.4,10.3
		c-10.9,0.1-21.8,0-32.6,0c-10.9,0-21.8,0-32.6,0c-7.3,0-10.6-3.3-10.6-10.5c0-8.6-0.9-17.2-1.6-25.8c-1-12.2-6.8-21.8-14.8-30.4
		c-7-7.5-14.3-14.7-20.6-22.8c-13.7-17.6-20.1-37.8-20.9-60c-1-28.2,7.2-53,26.2-73.9c17.6-19.4,39.6-30.3,65.7-32.9
		c50.8-5.1,99.3,30.4,108.5,81.8C323.7,251.9,316.7,283.4,292.5,309.9z"/>
</g>
</svg>
