<?xml version="1.0" encoding="utf-8"?>
<!-- Generator: Adobe Illustrator 22.1.0, SVG Export Plug-In . SVG Version: 6.00 Build 0)  -->
<svg version="1.1" id="Capa_1" xmlns="http://www.w3.org/2000/svg" xmlns:xlink="http://www.w3.org/1999/xlink" x="0px" y="0px"
	 viewBox="0 0 192 162" style="enable-background:new 0 0 192 162;" xml:space="preserve">
<style type="text/css">
	.st0{fill:#4D4644;}
	.st1{fill:#EBDE82;}
</style>
<g>
	<path class="st1" d="M75.2,56.5c12,0,23.6,0,35.7,0c0.3,5.3-2,9.3-6.2,12c-6.8,4.4-14.2,4.1-21.3,1C78.1,67.3,75.5,62.7,75.2,56.5z
		"/>
	<path class="st1" d="M89.1,121.4c-9.9-0.1-22-4.8-32.1-14.3c-1-1,2.3-4.7,3.4-3.7c20.2,17.2,44.9,17.2,65.4,0
		c1.1-0.9,4.3,2.7,3.3,3.8C120.3,116.1,106.6,121.3,89.1,121.4z"/>
	<path class="st1" d="M92.8,106.7c-10.1-0.3-19.1-3.5-26.6-10.3c-1.3-1.1-2.6-4.1-2-5c1.8-2.7,3.5-0.3,5.1,1c14,12,33.6,12.1,47.6,0
		c0.3-0.3,0.6-0.8,0.9-0.8c1.4-0.2,4.2,2.9,3.3,3.9C114.7,102.3,103,106.8,92.8,106.7z"/>
	<path class="st1" d="M93.5,46.9c5.2,0,10.4,0,15.6,0c2.5,0,4.7,0.7,4.7,3.6c0,2.9-2.3,3.6-4.7,3.6c-10.6,0-21.1,0-31.7,0
		c-2.4,0-4.8-0.6-4.9-3.5c-0.1-3.1,2.3-3.8,5-3.8C82.8,46.9,88.1,46.9,93.5,46.9z"/>
	<path class="st1" d="M92.7,91.1c-7.2-0.1-13.5-2.4-18.8-7.3c-1-1,2-4.7,3.1-3.8c11,8.1,21.3,8.1,32.1,0c1.1-0.8,4.2,2.9,3.2,3.9
		C106.8,88.9,100.2,91.2,92.7,91.1z"/>
</g>
</svg>
