<?xml version="1.0" encoding="utf-8"?>
<!-- Generator: Adobe Illustrator 22.1.0, SVG Export Plug-In . SVG Version: 6.00 Build 0)  -->
<svg version="1.1" id="Capa_1" xmlns="http://www.w3.org/2000/svg" xmlns:xlink="http://www.w3.org/1999/xlink" x="0px" y="0px"
	 viewBox="0 0 612 792" style="enable-background:new 0 0 612 792;" xml:space="preserve">
<style type="text/css">
	.st0{fill:#EADD81;}
	.st1{fill:#4D4644;}
</style>
<g>
	<path class="st0" d="M306.7,642.2c-26.4,0-52.8,0-79.2,0c-9.4,0-17-6.5-18.3-15.1c-1.4-9.5,3.5-17.8,12.3-20.8
		c2.6-0.9,5.3-0.9,8.1-0.9c18.2,0,36.5-0.1,54.7,0.1c3.4,0,4.7-0.6,4.6-4.4c-0.2-14.1-0.2-28.2,0-42.2c0-3-0.9-3.8-3.9-4.4
		c-57.6-10.5-96.9-43.3-117.4-98.2c-5.7-15.2-8-31.2-8-47.5c0-18.1-0.1-36.2,0-54.2c0.1-14,12.2-22.9,24.7-18.5
		c7.6,2.7,12.3,9.6,12.3,18.7c0.1,17.8-0.1,35.5,0,53.3c0.3,53.5,35.4,97.1,87.6,108.9c59.4,13.4,121-27.6,131.4-87.4
		c1.3-7.6,2-15.2,1.9-22.9c0-17.6-0.1-35.2,0-52.8c0.1-9.2,5.9-16.4,14.5-18.4c8-1.9,16.7,2.3,20.5,9.9c1.5,2.9,2,6.1,2,9.3
		c0,19.7,0.6,39.4-0.1,59c-2.6,69-50.4,123.1-112.1,138.3c-4.2,1-8.4,2-12.7,2.5c-3.4,0.3-4.4,1.4-4.4,5c0.2,13.9,0.2,27.8,0,41.8
		c-0.1,3.7,1.1,4.5,4.6,4.4c18.7-0.2,37.4-0.1,56.2-0.1c10.4,0.1,18,6.5,19.1,15.9c1.3,11.7-6.8,20.9-18.9,20.9
		C359.8,642.3,333.3,642.2,306.7,642.2z"/>
	<path class="st0" d="M393.2,237.3c-0.2-41-26.8-74.5-65.9-84.3c-3.5-0.9-7.2-0.6-10.5-2.3c-6.4,0-12.8,0-19.2,0
		c-0.3,0.7-0.9,0.8-1.5,0.8c-12.9,1.5-24.9,5.8-35.6,13c-26.2,17.7-39.3,42.6-39.3,74.1c-0.1,54.9,0,109.7,0,164.6
		c0,4.5,0.2,9,0.5,13.4c3.6,47.6,49.1,84.2,96.3,77.4c44-6.3,75-41.4,75.3-86C393.5,351.2,393.5,294.2,393.2,237.3z M356.2,408.8
		c-0.2,28.6-23.3,50.3-51.8,49.1c-24.8-1.1-46-22.2-46.1-47c-0.3-58.7-0.3-117.4,0-176.1c0.1-26.2,22.6-47.3,49.3-47.3
		c26.1,0,48,21.5,48.6,47.6c0,0.5,0,1,0,1.4c0,28.8,0,57.6,0,86.4C356.3,351.5,356.4,380.2,356.2,408.8z"/>
</g>
</svg>
